<?xml version="1.0" standalone="no"?>
<!DOCTYPE svg PUBLIC "-//W3C//DTD SVG 20010904//EN"
 "http://www.w3.org/TR/2001/REC-SVG-20010904/DTD/svg10.dtd">
<svg version="1.0" xmlns="http://www.w3.org/2000/svg"
 width="976.000000pt" height="193.000000pt" viewBox="0 0 976.000000 193.000000"
 preserveAspectRatio="xMidYMid meet">
<metadata>
Created by potrace 1.13, written by Peter Selinger 2001-2015
</metadata>
<g transform="translate(0.000000,193.000000) scale(0.100000,-0.100000)"
fill="#000000" stroke="none">
<path d="M3550 1868 c0 -35 4 -68 8 -75 5 -9 30 6 82 48 119 96 118 89 7 89
l-97 0 0 -62z"/>
<path d="M3738 1854 c-51 -42 -97 -80 -102 -84 -4 -4 17 -14 48 -21 l56 -12 0
-44 c0 -25 4 -43 9 -41 4 2 56 41 114 88 l106 85 1 53 0 52 -69 0 -69 0 -94
-76z"/>
<path d="M3848 1662 l-108 -87 0 -119 c0 -93 3 -116 13 -109 6 5 58 47 115 93
l102 83 0 113 c0 63 -3 114 -7 114 -5 -1 -56 -40 -115 -88z"/>
<path d="M3853 1360 l-113 -91 0 -130 c0 -101 3 -129 13 -123 30 19 209 167
213 178 3 7 3 67 2 134 l-3 122 -112 -90z"/>
<path d="M839 1351 c-8 -3 -158 -123 -332 -265 l-317 -260 0 -59 c0 -44 3 -56
13 -51 6 4 58 45 115 91 l102 84 0 49 c0 46 3 50 56 100 68 61 154 107 232
122 49 10 71 23 155 91 54 44 94 83 90 87 -11 10 -95 18 -114 11z"/>
<path d="M2880 1349 c-41 -4 -90 -12 -109 -18 -18 -6 -98 -63 -178 -127 -158
-128 -184 -163 -217 -291 -34 -132 -49 -140 318 160 184 149 334 272 333 273
-11 8 -87 10 -147 3z"/>
<path d="M6315 1346 c-27 -7 -65 -21 -84 -30 -53 -28 -140 -114 -181 -180
l-38 -58 -7 101 c-4 56 -11 101 -16 99 -5 -2 -52 -37 -104 -78 l-95 -75 0
-133 c0 -110 2 -132 14 -125 31 18 596 478 596 485 0 11 -25 9 -85 -6z"/>
<path d="M9068 1350 c-32 -4 -63 -12 -70 -17 -7 -6 -124 -99 -260 -208 l-248
-197 0 -105 0 -104 28 20 c15 11 65 51 112 88 83 67 85 70 88 115 3 43 8 52
59 98 67 61 153 107 231 122 48 10 72 23 159 92 56 44 99 84 95 87 -12 11
-134 17 -194 9z"/>
<path d="M6142 1068 l-352 -282 0 -149 c0 -118 3 -147 13 -140 6 5 58 47 115
92 l102 82 0 87 c0 76 4 95 30 150 81 171 235 250 410 209 41 -10 71 -12 81
-6 17 9 32 60 44 154 l7 50 -39 14 c-21 8 -43 16 -48 18 -6 2 -169 -124 -363
-279z"/>
<path d="M275 1328 c-11 -6 -60 -45 -109 -87 l-89 -75 32 -8 c22 -6 37 -5 49
4 31 22 201 162 199 164 -13 9 -67 10 -82 2z"/>
<path d="M667 1326 c-53 -19 -87 -44 -292 -213 -169 -140 -180 -151 -183 -186
l-3 -37 258 211 c299 244 293 239 273 239 -8 -1 -32 -7 -53 -14z"/>
<path d="M1723 1261 c-61 -49 -89 -77 -81 -82 7 -3 41 -12 76 -18 l62 -12 107
88 c118 97 119 90 -6 95 l-64 3 -94 -74z"/>
<path d="M3008 1262 c-53 -42 -97 -80 -98 -83 0 -3 44 -9 98 -12 53 -4 105 -8
114 -9 16 -3 168 107 168 122 0 5 -170 61 -182 60 -2 -1 -47 -35 -100 -78z"/>
<path d="M4693 1313 c-22 -15 -246 -194 -497 -398 l-456 -369 0 -143 c0 -79 2
-143 5 -143 3 0 54 39 113 86 l107 86 5 107 5 106 58 -1 c48 -1 63 -6 86 -28
15 -14 31 -26 35 -26 4 0 41 28 82 62 70 58 73 62 58 79 -16 17 -11 24 83 121
55 57 135 142 179 189 87 95 99 103 194 120 36 7 71 16 78 22 7 6 12 35 12 78
l0 69 -39 0 c-22 0 -46 2 -53 5 -8 3 -32 -7 -55 -22z"/>
<path d="M5653 1333 l-53 -4 0 -58 c0 -79 17 -99 91 -107 l57 -7 101 83 c56
46 100 84 99 85 -6 5 -247 11 -295 8z"/>
<path d="M6937 1331 c-22 -8 -198 -154 -192 -160 4 -3 30 -11 58 -16 l52 -10
5 -98 5 -98 110 87 c61 48 113 93 117 98 4 6 8 52 8 103 l0 91 -75 4 c-42 2
-81 1 -88 -1z"/>
<path d="M7868 1331 c-13 -4 -119 -85 -185 -142 l-33 -28 40 -11 40 -11 0 -75
c0 -42 4 -74 8 -72 5 2 57 41 115 88 l107 85 0 81 0 82 -39 4 c-22 2 -46 2
-53 -1z"/>
<path d="M4290 1274 c0 -30 5 -64 10 -74 10 -18 65 -40 100 -40 12 0 183 130
219 165 2 3 -71 5 -162 5 l-167 0 0 -56z"/>
<path d="M7542 1258 c2 -60 6 -73 21 -76 14 -3 197 130 197 144 0 2 -50 4
-110 4 l-111 0 3 -72z"/>
<path d="M8300 1271 c0 -71 6 -91 29 -91 12 0 166 112 199 145 3 3 -47 5 -111
5 l-117 0 0 -59z"/>
<path d="M8521 1249 c-55 -44 -99 -84 -96 -89 2 -4 18 -10 35 -13 30 -6 30 -7
30 -77 l0 -70 106 83 106 82 -6 64 c-6 67 -25 101 -56 101 -10 0 -63 -36 -119
-81z"/>
<path d="M938 1249 c-49 -39 -88 -75 -88 -79 0 -5 21 -15 46 -24 l47 -16 83
68 c46 37 84 70 84 74 0 8 -64 48 -76 48 -5 0 -48 -32 -96 -71z"/>
<path d="M9241 1243 l-95 -77 42 -14 c24 -8 58 -29 78 -47 l35 -34 85 67 c46
36 84 71 84 77 0 17 -110 106 -130 105 -3 0 -47 -35 -99 -77z"/>
<path d="M1921 1199 l-111 -91 0 -100 c0 -56 4 -98 9 -96 5 2 57 42 115 91
l106 87 0 100 c0 55 -2 100 -4 100 -2 0 -54 -41 -115 -91z"/>
<path d="M287 1200 c-97 -80 -97 -80 -97 -126 l0 -46 53 42 c28 23 75 61 104
83 53 42 62 66 45 110 -7 15 -22 6 -105 -63z"/>
<path d="M3280 1199 c-41 -33 -78 -64 -82 -67 -9 -9 9 -193 20 -204 5 -5 38
17 75 47 l67 55 0 115 c0 63 -1 115 -3 115 -1 0 -36 -27 -77 -61z"/>
<path d="M1090 1184 c-30 -25 -66 -55 -79 -65 l-25 -20 27 -55 c31 -63 19 -66
135 30 40 33 72 65 72 71 0 12 -58 85 -68 85 -4 0 -32 -21 -62 -46z"/>
<path d="M9445 1112 c-34 -26 -73 -57 -89 -69 l-28 -22 13 -71 c7 -38 14 -70
17 -70 3 0 171 129 195 150 11 10 -9 83 -31 109 -17 21 -17 21 -77 -27z"/>
<path d="M3853 1027 l-113 -91 0 -158 c0 -125 3 -158 13 -152 6 4 58 45 115
91 l102 84 0 160 c0 87 -1 159 -2 158 -2 0 -54 -41 -115 -92z"/>
<path d="M1148 1008 l-98 -80 0 -69 c0 -38 3 -69 8 -69 10 0 205 159 214 175
4 7 0 38 -10 68 l-17 55 -97 -80z"/>
<path d="M7844 1002 c-62 -48 -114 -94 -116 -102 -2 -8 -2 -58 1 -112 l6 -96
113 90 112 90 0 109 c0 60 -1 109 -2 109 -2 0 -53 -40 -114 -88z"/>
<path d="M6968 962 l-108 -86 0 -133 c0 -73 3 -133 6 -133 8 0 206 160 222
178 8 11 12 55 12 139 0 92 -3 123 -12 122 -7 0 -61 -39 -120 -87z"/>
<path d="M1918 923 l-108 -87 0 -99 c0 -76 3 -96 13 -91 6 4 58 45 115 92
l102 84 0 94 c0 52 -3 94 -7 94 -5 0 -56 -39 -115 -87z"/>
<path d="M9458 884 l-108 -86 0 -80 c0 -63 3 -78 13 -71 114 88 210 170 216
184 8 22 2 139 -7 139 -4 0 -55 -39 -114 -86z"/>
<path d="M2487 837 l-137 -111 0 -90 c0 -50 4 -96 8 -102 4 -8 45 20 117 80
l109 91 11 80 c7 44 18 97 24 118 7 21 11 40 9 42 -1 2 -65 -47 -141 -108z"/>
<path d="M1158 799 l-108 -89 0 -76 c0 -60 3 -74 13 -67 82 63 216 177 221
189 12 31 7 134 -6 134 -7 -1 -61 -41 -120 -91z"/>
<path d="M303 729 l-113 -91 0 -60 c0 -70 -10 -73 128 40 l102 84 0 59 c0 32
-1 59 -2 59 -2 0 -54 -41 -115 -91z"/>
<path d="M8603 734 l-113 -89 0 -108 c0 -84 3 -107 13 -101 31 19 209 167 213
178 3 7 3 57 2 111 l-3 98 -112 -89z"/>
<path d="M7838 703 l-108 -85 0 -110 c0 -85 3 -107 13 -102 23 15 202 158 209
168 10 14 10 216 1 215 -5 0 -56 -39 -115 -86z"/>
<path d="M1923 658 l-113 -92 0 -103 c0 -81 3 -102 13 -97 6 4 58 45 115 92
l102 84 0 104 c0 57 -1 104 -2 104 -2 0 -54 -41 -115 -92z"/>
<path d="M9461 652 l-111 -87 0 -77 c0 -43 4 -78 9 -78 9 0 212 158 223 174
11 15 10 144 -1 150 -5 3 -59 -34 -120 -82z"/>
<path d="M6974 623 c-101 -82 -109 -91 -112 -126 -3 -37 14 -177 23 -185 2 -2
50 34 107 80 l103 84 3 109 c1 59 -1 112 -6 117 -5 5 -54 -28 -118 -79z"/>
<path d="M1161 579 l-111 -90 0 -100 c0 -54 3 -99 6 -99 11 0 215 172 224 190
12 23 13 190 1 190 -4 0 -58 -41 -120 -91z"/>
<path d="M4270 610 c-41 -33 -76 -64 -78 -70 -2 -5 24 -44 58 -85 54 -66 63
-74 79 -63 51 37 141 112 141 117 0 5 -99 133 -118 153 -4 4 -41 -19 -82 -52z"/>
<path d="M301 539 l-111 -91 0 -75 c0 -41 4 -73 9 -71 5 2 56 42 115 91 l106
87 0 75 c0 41 -2 75 -4 75 -2 0 -54 -41 -115 -91z"/>
<path d="M2491 560 c-132 -108 -125 -96 -102 -160 25 -75 43 -110 53 -110 4 0
46 30 93 68 72 57 84 71 81 92 -14 95 -31 180 -36 179 -3 0 -43 -31 -89 -69z"/>
<path d="M5898 503 l-108 -86 0 -103 0 -103 -57 -11 c-108 -21 -122 -28 -128
-64 -4 -17 -5 -50 -3 -71 l3 -40 51 -3 50 -3 157 126 157 126 0 159 c0 88 -3
160 -7 160 -5 -1 -56 -40 -115 -87z"/>
<path d="M8608 448 c-57 -45 -106 -87 -110 -92 -4 -6 -8 -41 -8 -78 l0 -66
-47 -10 c-27 -6 -65 -14 -85 -17 -51 -10 -60 -24 -56 -90 l3 -56 208 165 207
166 0 80 c0 44 -2 80 -4 80 -3 0 -51 -37 -108 -82z"/>
<path d="M7647 258 c-168 -134 -306 -247 -307 -252 0 -12 85 2 150 25 61 21
169 91 215 139 l29 31 11 -36 10 -35 103 82 102 81 0 104 c0 56 -2 103 -3 103
-2 0 -142 -109 -310 -242z"/>
<path d="M9461 412 l-111 -87 0 -62 c0 -35 3 -63 6 -63 9 0 195 148 217 172
18 21 25 112 8 122 -5 3 -59 -34 -120 -82z"/>
<path d="M1923 379 c-108 -88 -113 -93 -113 -130 l0 -38 -61 -12 c-43 -8 -72
-21 -95 -42 -31 -26 -34 -34 -34 -83 l0 -54 63 0 62 0 148 120 147 121 0 104
c0 58 -1 105 -2 105 -2 0 -54 -41 -115 -91z"/>
<path d="M4436 410 c-97 -80 -96 -65 -17 -164 38 -48 72 -88 75 -89 9 -3 156
115 156 125 0 14 -134 178 -145 177 -5 0 -37 -22 -69 -49z"/>
<path d="M210 242 c-163 -134 -206 -174 -208 -195 -3 -27 -3 -27 60 -27 l63 1
148 121 147 121 0 73 c0 41 -1 74 -3 74 -1 0 -94 -76 -207 -168z"/>
<path d="M1163 308 l-113 -92 0 -93 c0 -51 4 -93 9 -93 12 0 177 132 209 167
19 21 22 35 22 114 0 49 -3 89 -7 89 -5 0 -59 -42 -120 -92z"/>
<path d="M7000 329 c-47 -38 -86 -76 -88 -84 -4 -16 48 -105 74 -126 12 -9 28
-1 88 45 104 79 101 74 68 137 -16 30 -31 64 -34 77 -3 12 -10 22 -15 21 -4 0
-46 -31 -93 -70z"/>
<path d="M2557 310 c-101 -82 -100 -75 -8 -163 l61 -58 57 46 c32 25 71 56 87
69 l28 23 -36 28 c-20 15 -50 49 -68 76 -17 27 -32 49 -32 49 -1 0 -41 -32
-89 -70z"/>
<path d="M3767 206 c-103 -84 -195 -160 -204 -169 -16 -16 -7 -17 146 -17
l163 0 99 82 c105 86 107 90 37 102 l-38 7 0 74 c0 41 -3 75 -7 74 -5 0 -92
-69 -196 -153z"/>
<path d="M5158 276 c-74 -62 -86 -89 -68 -157 12 -44 69 -109 95 -109 17 0
225 167 225 181 0 5 -9 27 -20 48 -23 45 -70 78 -125 86 -37 6 -44 3 -107 -49z"/>
<path d="M3221 266 c-35 -25 -86 -53 -114 -62 -56 -19 -156 -23 -228 -11 -46
8 -46 8 -129 -59 -77 -62 -82 -68 -64 -81 32 -23 116 -44 205 -50 l86 -6 179
144 c98 80 178 149 177 154 -6 25 -52 13 -112 -29z"/>
<path d="M9463 208 l-113 -90 0 -49 c0 -44 2 -49 23 -49 12 0 62 32 117 76
130 103 128 101 108 116 -10 7 -18 29 -20 50 l-3 36 -112 -90z"/>
<path d="M8553 167 c-84 -67 -158 -128 -165 -134 -10 -10 8 -13 88 -13 l99 0
109 87 110 88 -37 8 c-35 8 -37 11 -37 48 0 21 -3 39 -7 38 -5 0 -76 -55 -160
-122z"/>
<path d="M3236 139 c-75 -61 -135 -113 -133 -116 8 -8 90 18 147 47 60 31 160
114 160 134 0 7 -8 20 -18 29 -17 16 -26 10 -156 -94z"/>
<path d="M4603 169 l-73 -60 23 -31 c32 -43 67 -58 138 -58 58 0 64 2 124 50
84 67 92 77 74 95 -8 7 -50 20 -94 29 -44 9 -84 21 -89 26 -17 17 -29 11 -103
-51z"/>
<path d="M330 124 c-58 -47 -109 -90 -115 -95 -5 -5 28 -9 86 -9 l94 0 93 76
c50 41 92 77 92 79 0 2 -26 9 -57 15 -32 6 -65 13 -73 15 -8 3 -62 -34 -120
-81z"/>
<path d="M5915 118 l-118 -93 154 -3 c175 -3 186 -2 228 34 25 20 31 34 31 64
0 47 -10 55 -85 70 -33 6 -67 13 -76 16 -10 3 -62 -31 -134 -88z"/>
<path d="M7135 144 c-44 -36 -81 -69 -83 -74 -4 -10 106 -57 149 -63 34 -5 45
1 150 84 63 50 115 94 117 98 1 4 -21 4 -50 0 -47 -6 -82 -3 -178 16 -20 4
-42 -9 -105 -61z"/>
<path d="M7855 139 c-49 -39 -91 -75 -93 -79 -2 -4 4 -15 13 -24 13 -12 37
-16 112 -16 l95 0 79 63 c43 34 79 65 79 68 0 16 -32 30 -99 44 -40 8 -78 15
-84 15 -7 0 -52 -32 -102 -71z"/>
<path d="M1259 118 c-54 -44 -102 -84 -105 -89 -3 -5 49 -9 120 -9 l125 0 36
31 c28 25 35 38 35 69 0 44 -10 53 -68 68 l-43 10 -100 -80z"/>
<path d="M1940 113 l-105 -88 139 -3 138 -3 55 42 c64 50 67 53 59 84 -7 27
-47 44 -126 51 l-55 5 -105 -88z"/>
<path d="M9680 173 c-22 -15 -159 -123 -184 -145 -6 -4 11 -8 36 -8 42 0 54 6
137 72 51 39 88 75 84 79 -19 17 -50 18 -73 2z"/>
<path d="M8770 104 c-52 -42 -97 -78 -99 -80 -2 -2 43 -4 102 -4 124 0 137 7
137 76 0 49 -14 84 -33 84 -7 0 -55 -34 -107 -76z"/>
<path d="M4069 112 c-118 -94 -118 -92 -5 -92 l96 0 0 63 c0 95 -6 97 -91 29z"/>
</g>
</svg>
